<svg width="32" height="32" viewBox="0 0 40 40" fill="none" xmlns="http://www.w3.org/2000/svg">
  <!-- Outer circle - dark navy -->
  <circle cx="20" cy="20" r="19.5" fill="#0D2B45" stroke="#C9A84C" stroke-width="1.2"/>
  <!-- Intercardinal blades -->
  <path d="M20 20 L28.5 11.5 L25 20 Z" fill="#C9A84C" opacity="0.5"/>
  <path d="M20 20 L11.5 11.5 L20 25 Z" fill="#C9A84C" opacity="0.3"/>
  <path d="M20 20 L28.5 28.5 L20 25 Z" fill="#C9A84C" opacity="0.3"/>
  <path d="M20 20 L11.5 28.5 L15 20 Z" fill="#C9A84C" opacity="0.5"/>
  <!-- Cardinal N - tall gold kite -->
  <path d="M20 2 L24 19 L20 21.5 L16 19 Z" fill="#C9A84C"/>
  <!-- Cardinal S - tall slate kite -->
  <path d="M20 38 L24 21 L20 18.5 L16 21 Z" fill="#8FA3BB"/>
  <!-- Cardinal E - wide gold kite -->
  <path d="M38 20 L21 16 L18.5 20 L21 24 Z" fill="#C9A84C"/>
  <!-- Cardinal W - wide slate kite -->
  <path d="M2 20 L19 16 L21.5 20 L19 24 Z" fill="#8FA3BB"/>
  <!-- Center hub -->
  <circle cx="20" cy="20" r="4.2" fill="#C9A84C"/>
  <circle cx="20" cy="20" r="2.6" fill="#0D2B45"/>
  <circle cx="20" cy="20" r="1.2" fill="#C9A84C"/>
</svg>
